<?xml version="1.0" encoding="UTF-8"?>
<!-- Generator: visioncortex VTracer 0.6.3 -->
<svg version="1.1" xmlns="http://www.w3.org/2000/svg" width="680" height="1280">
<path d="M0 0 C1.23 0 1.23 0 2.48 0 C3.34 0 4.2 0 5.09 -0 C8 -0.01 10.91 -0.01 13.82 -0.01 C15.9 -0.01 17.97 -0.01 20.05 -0.02 C25.71 -0.03 31.37 -0.03 37.03 -0.03 C41.76 -0.03 46.48 -0.03 51.2 -0.04 C62.34 -0.05 73.48 -0.05 84.62 -0.05 C96.12 -0.05 107.62 -0.06 119.11 -0.07 C128.98 -0.09 138.84 -0.09 148.7 -0.09 C154.6 -0.09 160.49 -0.09 166.38 -0.1 C171.93 -0.11 177.48 -0.11 183.02 -0.11 C185.06 -0.11 187.09 -0.11 189.13 -0.11 C191.91 -0.12 194.69 -0.12 197.47 -0.11 C198.28 -0.11 199.08 -0.12 199.91 -0.12 C204.77 -0.09 208.73 0.62 213.35 2.14 C214.89 2.47 216.43 2.78 217.98 3.08 C221.62 3.85 224.2 5.12 227.35 7.14 C230.05 7.85 230.05 7.85 232.35 8.14 C232.35 8.8 232.35 9.46 232.35 10.14 C233.34 10.14 234.33 10.14 235.35 10.14 C235.35 10.8 235.35 11.46 235.35 12.14 C236.12 12.28 236.88 12.43 237.67 12.58 C240.35 13.14 240.35 13.14 243.35 14.14 C243.35 14.8 243.35 15.46 243.35 16.14 C244.1 16.22 244.84 16.3 245.6 16.39 C248.9 17.29 250.17 18.56 252.35 21.14 C252.68 21.8 253.01 22.46 253.35 23.14 C254.67 23.84 256.01 24.5 257.35 25.14 C258.34 25.8 259.33 26.46 260.35 27.14 C260.35 27.8 260.35 28.46 260.35 29.14 C261.19 29.48 261.19 29.48 262.04 29.83 C265.02 31.51 267.07 33.61 269.35 36.14 C269.35 36.8 269.35 37.46 269.35 38.14 C270.34 38.47 271.33 38.8 272.35 39.14 C272.35 40.13 272.35 41.12 272.35 42.14 C273.01 42.14 273.67 42.14 274.35 42.14 C275.31 43.53 276.25 44.93 277.15 46.36 C278.45 48.28 279.88 49.97 281.42 51.7 C283.75 54.36 285.62 57.04 287.35 60.14 C287.68 60.47 288.01 60.8 288.35 61.14 C288.46 62.21 288.56 63.28 288.67 64.39 C289.02 68.17 289.02 68.17 291.42 70.39 C294.43 74.66 293.67 79.07 293.35 84.14 C294.34 84.47 295.33 84.8 296.35 85.14 C297.01 88.44 297.67 91.74 298.35 95.14 C298.68 95.14 299.01 95.14 299.35 95.14 C299.41 99.72 299.45 104.3 299.48 108.89 C299.5 110.19 299.51 111.49 299.53 112.83 C299.54 114.08 299.54 115.33 299.55 116.62 C299.56 117.77 299.57 118.93 299.58 120.11 C299.36 123.04 298.88 124.68 297.35 127.14 C296.69 127.14 296.03 127.14 295.35 127.14 C295.45 128.75 295.45 128.75 295.54 130.39 C295.34 134.53 294.8 135.05 292.35 138.14 C291.57 139.69 290.83 141.25 290.1 142.83 C284.68 153.85 276.09 163.77 264.35 168.14 C252.32 171.91 241.79 172.51 230.05 167.07 C221.39 161.97 214.73 154.16 210.35 145.14 C210.16 142.3 210.16 142.3 210.35 140.14 C209.03 139.48 207.71 138.82 206.35 138.14 C206.35 135.83 206.35 133.52 206.35 131.14 C205.76 130.93 205.16 130.73 204.54 130.51 C202.35 129.14 202.35 129.14 200.98 126.33 C198.33 121.12 193.98 117.82 188.51 115.76 C174.39 111.71 159.1 112.87 144.58 112.91 C141.89 112.91 139.19 112.91 136.49 112.91 C130.87 112.91 125.24 112.92 119.61 112.93 C113.13 112.95 106.64 112.95 100.16 112.95 C93.21 112.95 86.27 112.96 79.33 112.97 C77.34 112.97 75.35 112.97 73.37 112.97 C69.66 112.97 65.95 112.98 62.24 112.99 C60.61 112.99 60.61 112.99 58.94 112.99 C53.32 113.02 47.92 113.3 42.35 114.14 C42.35 116.12 42.35 118.1 42.35 120.14 C41.69 120.14 41.03 120.14 40.35 120.14 C47.04 129.23 47.04 129.23 54.73 137.45 C58.45 140.98 60.34 144.44 62.35 149.14 C63.01 149.14 63.67 149.14 64.35 149.14 C64.68 150.13 65.01 151.12 65.35 152.14 C67 153.83 68.67 155.49 70.35 157.14 C75.35 162.52 75.35 162.52 75.35 166.14 C76.01 166.14 76.67 166.14 77.35 166.14 C78.41 167.43 79.4 168.77 80.35 170.14 C82.28 172.62 84.16 174.95 86.42 177.14 C89.9 180.73 91.35 183.08 91.35 188.14 C91.93 188.37 92.51 188.59 93.1 188.83 C95.92 190.47 97.38 192.57 99.35 195.14 C100.01 195.47 100.67 195.8 101.35 196.14 C101.35 197.13 101.35 198.12 101.35 199.14 C102.67 199.8 103.99 200.46 105.35 201.14 C105.35 201.8 105.35 202.46 105.35 203.14 C106.01 203.47 106.67 203.8 107.35 204.14 C107.98 206.7 107.98 206.7 108.35 209.14 C109.34 209.14 110.33 209.14 111.35 209.14 C112.41 210.77 113.4 212.44 114.35 214.14 C115.63 215.63 116.95 217.08 118.29 218.51 C120.81 221.27 122.92 223.84 124.67 227.14 C126.07 230.42 126.07 230.42 129.35 231.14 C130.54 234.2 130.54 234.2 131.35 237.14 C132.01 237.14 132.67 237.14 133.35 237.14 C134.64 238.53 134.64 238.53 135.98 240.39 C136.43 240.99 136.87 241.59 137.33 242.22 C138.35 244.14 138.35 244.14 138.35 248.14 C139.34 247.81 140.33 247.48 141.35 247.14 C141.66 247.68 141.96 248.22 142.27 248.78 C144.79 253.08 146.67 256 151.35 258.14 C152.01 256.16 152.67 254.18 153.35 252.14 C154.01 252.14 154.67 252.14 155.35 252.14 C155.68 249.83 156.01 247.52 156.35 245.14 C157.34 245.14 158.33 245.14 159.35 245.14 C159.68 242.17 160.01 239.2 160.35 236.14 C161.34 235.81 162.33 235.48 163.35 235.14 C164.06 233.15 164.72 231.15 165.35 229.14 C166.32 227.78 167.32 226.45 168.35 225.14 C169.74 222.83 171.04 220.49 172.35 218.14 C173.01 218.14 173.67 218.14 174.35 218.14 C174.35 217.48 174.35 216.82 174.35 216.14 C175.01 216.14 175.67 216.14 176.35 216.14 C176.62 215.54 176.89 214.94 177.17 214.33 C178.35 212.14 179.45 210.73 181.35 209.14 C182.01 209.14 182.67 209.14 183.35 209.14 C183.35 208.48 183.35 207.82 183.35 207.14 C184.01 207.14 184.67 207.14 185.35 207.14 C185.35 206.48 185.35 205.82 185.35 205.14 C186.67 204.81 187.99 204.48 189.35 204.14 C189.02 203.48 188.69 202.82 188.35 202.14 C189.28 201.87 190.21 201.6 191.17 201.33 C194.27 200.17 195.21 199.47 197.35 197.14 C199 196.1 200.66 195.1 202.35 194.14 C201.69 193.81 201.03 193.48 200.35 193.14 C202.66 192.81 204.97 192.48 207.35 192.14 C207.68 191.15 208.01 190.16 208.35 189.14 C209.16 189.01 209.96 188.89 210.79 188.76 C211.64 188.56 212.48 188.35 213.35 188.14 C213.68 187.48 214.01 186.82 214.35 186.14 C215.01 186.14 215.67 186.14 216.35 186.14 C217.01 185.48 217.67 184.82 218.35 184.14 C220.69 183.47 223.02 182.81 225.35 182.14 C226.01 181.48 226.67 180.82 227.35 180.14 C230.92 179.54 234.48 179.18 238.07 178.8 C241.32 178.5 241.32 178.5 242.62 176.62 C245.36 174.28 247.87 174.8 251.42 174.84 C252.14 174.84 252.87 174.85 253.62 174.85 C256.09 174.87 258.55 174.9 261.02 174.94 C262.8 174.95 264.57 174.97 266.35 174.98 C270.25 175.01 274.14 175.04 278.04 175.08 C284.58 175.15 291.12 175.16 297.67 175.16 C308.35 175.17 319.04 175.21 329.73 175.27 C335.89 175.31 342.04 175.33 348.2 175.33 C354.29 175.34 360.38 175.37 366.46 175.41 C368.74 175.42 371.02 175.43 373.3 175.42 C386.97 175.4 399.49 176.17 412.35 181.14 C413.01 181.8 413.67 182.46 414.35 183.14 C416 183.85 417.67 184.52 419.35 185.14 C419.35 185.8 419.35 186.46 419.35 187.14 C420.01 187.14 420.67 187.14 421.35 187.14 C421.35 187.8 421.35 188.46 421.35 189.14 C422.19 189.48 422.19 189.48 423.04 189.83 C426.64 191.87 429.81 194.34 431.04 198.39 C431.15 198.97 431.25 199.54 431.35 200.14 C432.34 200.63 432.34 200.63 433.35 201.14 C433.98 204.2 433.98 204.2 434.35 207.14 C435.01 207.14 435.67 207.14 436.35 207.14 C438.64 210.56 438.61 211.85 438.62 215.87 C438.62 217 438.63 218.14 438.63 219.3 C438.62 220.49 438.61 221.67 438.6 222.89 C438.61 224.06 438.62 225.22 438.63 226.43 C438.61 235.21 437.54 241.33 433.35 249.14 C435.08 247.42 436.12 245.22 437.35 243.14 C437.35 249.16 434.17 254.93 431.35 260.14 C430.76 261.25 430.76 261.25 430.15 262.38 C423.19 274.69 415.06 283.13 401.18 287.03 C387.9 289.82 374.63 289.58 361.11 289.58 C358.49 289.59 355.87 289.6 353.25 289.62 C345.69 289.66 338.14 289.68 330.58 289.7 C320.28 289.72 309.99 289.76 299.69 289.81 C295.87 289.83 292.04 289.83 288.22 289.84 C285.87 289.85 283.51 289.86 281.16 289.87 C280.11 289.86 279.06 289.86 277.97 289.86 C266.8 289.94 255.91 291.46 247.19 299.01 C242.37 304.07 239.18 309.73 236.02 315.93 C234.5 318.85 232.89 321.65 231.17 324.45 C227.02 331.31 223.04 337.97 222.35 346.14 C223.11 348.95 223.11 348.95 224.35 351.14 C224.35 352.13 224.35 353.12 224.35 354.14 C226.22 358.81 229.19 362.36 233.35 365.14 C233.68 365.8 234.01 366.46 234.35 367.14 C235.01 367.8 235.67 368.46 236.35 369.14 C237.33 370.42 238.28 371.71 239.23 373.01 C240.88 375.25 242.39 377.17 244.42 379.08 C247.46 382.31 249.31 386.22 251.35 390.14 C252.01 390.14 252.67 390.14 253.35 390.14 C254.3 391.53 255.25 392.92 256.14 394.35 C258.79 398.27 262.01 401.8 265.35 405.14 C265.76 406.28 265.76 406.28 266.17 407.45 C267.63 410.76 269.78 412.63 272.35 415.14 C272.35 415.8 272.35 416.46 272.35 417.14 C273.01 417.14 273.67 417.14 274.35 417.14 C274.35 417.8 274.35 418.46 274.35 419.14 C275.01 419.14 275.67 419.14 276.35 419.14 C276.46 419.74 276.56 420.33 276.67 420.95 C277.19 423.22 277.19 423.22 278.92 424.64 C280.35 426.14 280.35 426.14 280.35 430.14 C281.67 430.47 282.99 430.8 284.35 431.14 C284.44 432.09 284.52 433.04 284.6 434.01 C285.01 437.24 285.01 437.24 287.42 438.51 C288.06 438.72 288.7 438.93 289.35 439.14 C289.02 441.12 288.69 443.1 288.35 445.14 C289.34 445.14 290.33 445.14 291.35 445.14 C293.71 448.67 293.57 450.17 293.48 454.33 C293.46 455.41 293.44 456.5 293.43 457.62 C293.39 458.87 293.39 458.87 293.35 460.14 C294.67 460.8 295.99 461.46 297.35 462.14 C297.35 473.03 297.35 483.92 297.35 495.14 C297.68 485.9 298.01 476.66 298.35 467.14 C298.68 467.14 299.01 467.14 299.35 467.14 C299.4 471.94 299.44 476.75 299.46 481.55 C299.47 483.19 299.49 484.83 299.51 486.46 C299.53 488.81 299.54 491.16 299.55 493.51 C299.56 494.24 299.57 494.97 299.58 495.73 C299.58 497.53 299.48 499.34 299.35 501.14 C298.69 501.8 298.03 502.46 297.35 503.14 C296.69 503.14 296.03 503.14 295.35 503.14 C295.28 504.36 295.28 504.36 296.35 506.14 C296.34 508.38 296.34 508.38 296.1 511.01 C296 512.31 296 512.31 295.9 513.63 C295.28 516.5 294.18 517.88 292.35 520.14 C291.52 521.98 291.52 521.98 290.92 523.89 C282.72 546.79 265.94 567.49 244.05 578.27 C237.94 581.14 231.77 583.95 225.39 586.17 C224.72 586.49 224.05 586.81 223.35 587.14 C222.17 590.17 222.17 590.17 222.35 593.7 C222.35 597.14 222.35 597.14 221.35 599.14 C222.34 599.47 223.33 599.8 224.35 600.14 C224.68 602.12 225.01 604.1 225.35 606.14 C226.34 606.47 227.33 606.8 228.35 607.14 C228.44 608.07 228.52 608.99 228.6 609.95 C229.48 613.69 230.28 614.09 233.35 616.14 C235.32 619.18 235.35 620.32 235.35 624.14 C236.01 624.14 236.67 624.14 237.35 624.14 C237.35 626.45 237.35 628.76 237.35 631.14 C238.67 631.47 239.99 631.8 241.35 632.14 C241.62 633.25 241.89 634.37 242.17 635.51 C243.01 639.36 243.01 639.36 246.35 641.14 C247.35 642.81 248.35 644.47 249.35 646.14 C250.34 646.8 251.33 647.46 252.35 648.14 C252.35 648.8 252.35 649.46 252.35 650.14 C253.05 650.14 253.75 650.15 254.47 650.15 C271.45 650.23 288.42 650.32 305.4 650.43 C313.61 650.48 321.81 650.52 330.02 650.56 C337.18 650.59 344.33 650.63 351.48 650.68 C355.27 650.71 359.06 650.73 362.85 650.74 C366.42 650.75 369.98 650.78 373.54 650.81 C375.48 650.82 377.42 650.82 379.35 650.83 C380.5 650.84 381.65 650.85 382.83 650.86 C383.83 650.87 384.83 650.87 385.86 650.88 C388.35 651.14 388.35 651.14 391.35 653.14 C394.9 653.83 398.44 654.39 402.02 654.91 C406.45 655.61 409.61 656.51 413.35 659.14 C414.01 659.47 414.67 659.8 415.35 660.14 C415.35 660.8 415.35 661.46 415.35 662.14 C416.01 662.14 416.67 662.14 417.35 662.14 C417.35 662.8 417.35 663.46 417.35 664.14 C417.91 664.2 418.47 664.26 419.04 664.33 C422.96 665.7 425.5 668.65 427.54 672.2 C427.81 672.84 428.08 673.48 428.35 674.14 C428.73 674.88 429.1 675.62 429.48 676.39 C429.77 676.97 430.06 677.54 430.35 678.14 C431.01 678.14 431.67 678.14 432.35 678.14 C432.35 678.8 432.35 679.46 432.35 680.14 C433.01 680.14 433.67 680.14 434.35 680.14 C434.51 681.72 434.51 681.72 434.67 683.33 C435.35 687.1 436.39 688.94 438.35 692.14 C439.04 695.45 439.04 695.45 439.35 698.14 C439.68 698.14 440.01 698.14 440.35 698.14 C440.41 699.89 440.45 701.64 440.48 703.39 C440.51 704.85 440.51 704.85 440.55 706.34 C440.35 709.16 439.8 710.75 438.35 713.14 C438.35 711.16 438.35 709.18 438.35 707.14 C438.05 708.27 437.74 709.41 437.42 710.58 C436.35 714.14 436.35 714.14 435.35 715.14 C435.23 716.27 435.11 717.41 434.98 718.58 C434.77 719.75 434.57 720.93 434.35 722.14 C433.36 722.8 432.37 723.46 431.35 724.14 C431.35 724.47 431.35 724.8 431.35 725.14 C432.34 724.48 433.33 723.82 434.35 723.14 C435.09 719.57 435.09 719.57 435.35 716.14 C435.68 716.14 436.01 716.14 436.35 716.14 C436.48 723.89 436.48 723.89 435.35 726.14 C434.36 726.14 433.37 726.14 432.35 726.14 C432.42 727.53 432.42 727.53 432.48 728.95 C432.35 732.14 432.35 732.14 430.35 735.14 C429.69 735.14 429.03 735.14 428.35 735.14 C428.29 736.13 428.29 736.13 428.23 737.14 C425.93 745.02 418.89 751.52 412.35 756.14 C399.82 762.91 387.54 764.44 373.44 764.41 C372.21 764.42 370.97 764.42 369.71 764.43 C366.36 764.44 363.02 764.44 359.68 764.44 C356.87 764.44 354.06 764.44 351.25 764.45 C344.61 764.46 337.97 764.46 331.32 764.45 C324.52 764.45 317.72 764.46 310.92 764.48 C305.03 764.5 299.15 764.51 293.27 764.5 C289.77 764.5 286.28 764.5 282.78 764.52 C242.44 764.67 209.27 755.64 179.23 727.39 C170.11 718 163.21 705.94 157.44 694.28 C156.36 692.15 155.24 690.05 154.1 687.95 C153.72 687.25 153.34 686.55 152.95 685.83 C152.18 684.41 151.4 683 150.62 681.58 C147.93 676.58 145.99 671.58 144.35 666.14 C143.69 666.14 143.03 666.14 142.35 666.14 C141.69 663.5 141.03 660.86 140.35 658.14 C139.69 658.14 139.03 658.14 138.35 658.14 C137.49 656.41 136.63 654.68 135.76 652.96 C135.03 651.48 134.29 650.01 133.55 648.54 C132.01 645.46 130.48 642.39 128.96 639.31 C125.59 632.49 122 625.81 118.35 619.14 C117.81 618.09 117.26 617.04 116.7 615.96 C109.19 602.07 97.4 594.27 82.71 589.23 C73.46 586.97 63.56 587 54.09 586.93 C51.96 586.9 49.83 586.87 47.7 586.84 C44.41 586.8 41.11 586.76 37.82 586.74 C11.14 586.51 -14 582.44 -34.65 564.14 C-35.93 563.04 -35.93 563.04 -37.23 561.91 C-48.57 551.99 -56.72 540.76 -64.16 527.7 C-65.26 525.81 -66.43 523.96 -67.65 522.14 C-67.79 521.31 -67.93 520.49 -68.08 519.64 C-68.41 517.11 -68.41 517.11 -70.08 515.76 C-72.45 513.3 -72.78 510.39 -73.65 507.14 C-74.64 505.65 -74.64 505.65 -75.65 504.14 C-75.97 501.95 -76.08 499.8 -76.2 497.59 C-76.53 494.99 -76.53 494.99 -78.15 492.44 C-79.88 488.62 -80 485.98 -79.97 481.8 C-79.97 480.77 -79.97 480.77 -79.97 479.72 C-79.96 478.28 -79.95 476.84 -79.93 475.4 C-79.9 473.21 -79.89 471.02 -79.88 468.84 C-79.84 462.51 -79.65 456.39 -78.65 450.14 C-77.99 450.14 -77.33 450.14 -76.65 450.14 C-76.98 448.82 -77.31 447.5 -77.65 446.14 C-76.99 446.14 -76.33 446.14 -75.65 446.14 C-75.32 443.83 -74.99 441.52 -74.65 439.14 C-73.66 439.47 -72.67 439.8 -71.65 440.14 C-72.14 438.65 -72.14 438.65 -72.65 437.14 C-71.99 437.14 -71.33 437.14 -70.65 437.14 C-70.65 435.16 -70.65 433.18 -70.65 431.14 C-69.66 431.14 -68.67 431.14 -67.65 431.14 C-67.98 430.48 -68.31 429.82 -68.65 429.14 C-67.59 428.73 -66.54 428.31 -65.46 427.89 C-62.04 426.44 -59.49 424.53 -56.65 422.14 C-54.46 420.95 -54.46 420.95 -52.65 420.14 C-51.99 419.81 -51.33 419.48 -50.65 419.14 C-48.35 418.87 -46.05 418.69 -43.74 418.52 C-41.43 418.31 -41.43 418.31 -39.65 416.14 C-37 415.94 -34.48 415.86 -31.83 415.89 C-31.12 415.88 -30.41 415.87 -29.67 415.86 C-25.51 415.88 -22.42 416.43 -18.65 418.14 C-15.98 418.63 -13.35 418.86 -10.65 419.14 C-10.65 419.8 -10.65 420.46 -10.65 421.14 C-10.11 421.22 -9.57 421.3 -9.02 421.39 C-5.8 422.41 -3.41 424.22 -0.65 426.14 C0.3 426.67 1.25 427.21 2.23 427.76 C3.28 428.44 3.28 428.44 4.35 429.14 C4.35 429.8 4.35 430.46 4.35 431.14 C5.34 431.47 6.33 431.8 7.35 432.14 C9.92 435.55 10.72 437.89 10.35 442.14 C10.99 442.28 11.63 442.43 12.29 442.58 C14.35 443.14 14.35 443.14 15.35 444.14 C15.6 446.88 15.74 449.63 15.88 452.38 C16.41 455.46 17.39 456.76 19.35 459.14 C20.04 461.89 20.04 461.89 20.35 464.14 C20.68 464.14 21.01 464.14 21.35 464.14 C22.34 469.09 22.34 469.09 23.35 474.14 C28.45 474.16 33.54 474.18 38.63 474.19 C40.36 474.2 42.09 474.21 43.82 474.21 C46.31 474.23 48.8 474.23 51.28 474.24 C52.45 474.24 52.45 474.24 53.64 474.25 C57.63 474.34 57.63 474.34 61.35 473.14 C61.33 472.47 61.31 471.8 61.28 471.11 C61.16 464.65 61.54 458.36 62.29 451.95 C62.38 451.2 62.47 450.44 62.56 449.66 C63.22 444.27 63.22 444.27 64.35 443.14 C64.77 439.68 65.12 436.22 65.43 432.75 C65.95 427.64 67.16 423.78 69.35 419.14 C69.9 417.63 70.42 416.11 70.92 414.58 C71.16 413.82 71.41 413.06 71.67 412.28 C71.89 411.57 72.12 410.86 72.35 410.14 C73.57 406.41 74.86 402.76 76.35 399.14 C77.01 399.14 77.67 399.14 78.35 399.14 C78.68 396.83 79.01 394.52 79.35 392.14 C80.34 391.81 81.33 391.48 82.35 391.14 C83.08 389.29 83.08 389.29 83.42 387.14 C83.83 384.95 83.83 384.95 84.35 383.14 C85.01 382.81 85.67 382.48 86.35 382.14 C87.45 379.81 88.42 377.52 89.35 375.14 C89.63 374.47 89.9 373.8 90.18 373.11 C93.26 365.68 93.26 365.68 92.09 357.98 C87.17 349.7 81.75 342.14 75.64 334.7 C73.85 332.53 72.11 330.33 70.35 328.14 C69.72 327.34 69.08 326.55 68.43 325.73 C61.05 316.49 53.8 307.15 46.55 297.81 C43 293.24 39.43 288.68 35.85 284.14 C31.67 278.82 27.51 273.48 23.35 268.14 C15.4 257.9 7.41 247.69 -0.71 237.58 C-4.77 232.51 -8.78 227.41 -12.72 222.25 C-16.26 217.63 -19.82 213.04 -23.4 208.45 C-23.99 207.69 -24.58 206.93 -25.19 206.15 C-28.2 202.28 -31.21 198.41 -34.23 194.55 C-37.15 190.81 -40.06 187.06 -42.96 183.31 C-44.07 181.88 -45.18 180.45 -46.3 179.02 C-64.65 155.42 -64.65 155.42 -64.65 148.14 C-65.31 148.14 -65.97 148.14 -66.65 148.14 C-66.92 147.57 -67.2 147.01 -67.48 146.42 C-67.85 145.69 -68.21 144.96 -68.58 144.2 C-69.12 143.1 -69.12 143.1 -69.67 141.99 C-70.51 140.18 -70.51 140.18 -71.65 139.14 C-71.79 136.47 -71.69 133.81 -71.65 131.14 C-72.29 130.91 -72.94 130.68 -73.61 130.44 C-75.65 129.14 -75.65 129.14 -76.15 126.93 C-76.17 126.07 -76.19 125.21 -76.21 124.33 C-76.31 120.4 -76.31 120.4 -78.15 117.01 C-80.14 113.2 -80.06 109.75 -80.01 105.55 C-80.01 104.32 -80.01 104.32 -80.01 103.06 C-80.01 101.32 -80 99.59 -79.98 97.86 C-79.96 95.21 -79.96 92.57 -79.97 89.93 C-79.96 88.24 -79.95 86.55 -79.95 84.86 C-79.95 84.08 -79.95 83.29 -79.95 82.48 C-79.89 77.98 -79.33 74.38 -77.65 70.14 C-76.53 66.98 -75.65 64.14 -75.15 60.83 C-74.98 59.94 -74.82 59.05 -74.65 58.14 C-73.66 57.64 -73.66 57.64 -72.65 57.14 C-72.32 55.98 -71.99 54.83 -71.65 53.64 C-71.32 52.48 -70.99 51.33 -70.65 50.14 C-69.66 49.64 -69.66 49.64 -68.65 49.14 C-67.74 47.26 -67.74 47.26 -67.02 45.08 C-66.76 44.34 -66.5 43.61 -66.23 42.85 C-66.04 42.29 -65.84 41.72 -65.65 41.14 C-64.99 41.14 -64.33 41.14 -63.65 41.14 C-63.38 40.55 -63.12 39.95 -62.84 39.34 C-61.6 37.06 -60.34 35.66 -58.46 33.89 C-55.89 31.41 -53.51 28.87 -51.21 26.14 C-47.36 21.67 -42.98 16.8 -37.65 14.14 C-37.65 13.81 -37.65 13.48 -37.65 13.14 C-36.86 13.01 -36.08 12.89 -35.27 12.76 C-32.5 12.35 -32.5 12.35 -30.65 10.14 C-28.83 8.32 -26.1 8.5 -23.65 8.14 C-23.65 7.48 -23.65 6.82 -23.65 6.14 C-23.05 5.99 -22.45 5.85 -21.83 5.7 C-20.08 5.25 -18.36 4.71 -16.65 4.14 C-14.65 4.1 -12.64 4.09 -10.65 4.14 C-10.65 3.48 -10.65 2.82 -10.65 2.14 C-10.01 1.99 -9.37 1.85 -8.71 1.7 C-2.51 0.01 -2.51 0.01 0 0 Z M297.35 108.14 C297.02 113.42 296.69 118.7 296.35 124.14 C298.78 120.51 298.57 118.75 298.48 114.45 C298.46 113.27 298.44 112.09 298.43 110.88 C298.4 109.97 298.38 109.07 298.35 108.14 C298.02 108.14 297.69 108.14 297.35 108.14 Z M294.35 125.14 C293.7 126.39 293.06 127.64 292.42 128.89 C291.88 129.93 291.88 129.93 291.33 131 C290.4 133.04 289.82 134.95 289.35 137.14 C293.53 133.68 294.68 130.16 296.35 125.14 C295.69 125.14 295.03 125.14 294.35 125.14 Z M430.35 252.14 C431.35 254.14 431.35 254.14 431.35 254.14 Z M429.35 254.14 C430.35 256.14 430.35 256.14 430.35 256.14 Z M236.35 304.14 C237.35 306.14 237.35 306.14 237.35 306.14 Z M228.35 318.14 C228.02 319.46 227.69 320.78 227.35 322.14 C228.01 321.81 228.67 321.48 229.35 321.14 C229.02 320.15 228.69 319.16 228.35 318.14 Z M224.35 326.14 C225.35 329.14 225.35 329.14 225.35 329.14 Z M220.35 334.14 C220.02 335.13 219.69 336.12 219.35 337.14 C220.01 337.14 220.67 337.14 221.35 337.14 C221.02 336.15 220.69 335.16 220.35 334.14 Z M167.35 467.14 C167.35 469.45 167.35 471.76 167.35 474.14 C172.63 474.14 177.91 474.14 183.35 474.14 C179.73 469.61 178.44 468.15 173.35 466.14 C169.58 465.84 169.58 465.84 167.35 467.14 Z M292.35 510.14 C292.15 510.92 291.94 511.71 291.73 512.51 C290.18 516.61 288.07 520 285.69 523.67 C284.32 526.2 283.76 528.3 283.35 531.14 C286.37 529.63 286.88 527.15 288.35 524.14 C289.24 522.8 290.14 521.47 291.04 520.14 C293.26 516.69 293.88 514.31 293.35 510.14 C293.02 510.14 292.69 510.14 292.35 510.14 Z M219.35 591.14 C219.68 593.12 220.01 595.1 220.35 597.14 C221.04 595.25 221.04 595.25 221.35 593.14 C220.69 592.48 220.03 591.82 219.35 591.14 Z " fill="#FBFBFB" transform="translate(112.64514696598053,315.8615944981575)"/>
<path d="M0 0 C0.33 0 0.66 0 1 0 C1.01 1.04 1.03 2.08 1.04 3.15 C1.1 7.01 1.18 10.87 1.26 14.73 C1.3 16.4 1.32 18.07 1.35 19.74 C1.38 22.15 1.43 24.55 1.49 26.95 C1.5 28.07 1.5 28.07 1.51 29.21 C1.63 33.47 2.12 35.84 5 39 C5.41 41.22 5.41 41.22 5.5 43.5 C5.81 47.32 6.47 49.06 9 52 C9.68 54 10.35 56 11 58 C11.66 58.66 12.32 59.32 13 60 C13.28 60.74 13.56 61.48 13.85 62.25 C18.04 72.26 29.49 85.37 38.32 91.65 C39.15 92.32 39.15 92.32 40 93 C40 93.99 40 94.98 40 96 C40.58 96.1 41.16 96.21 41.75 96.31 C45.09 97.33 47.32 99.45 50 101.62 C52.04 103.03 53.59 103.57 56 104 C56 104.66 56 105.32 56 106 C56.89 106.27 57.77 106.54 58.69 106.81 C62 108 62 108 64.31 109.44 C70.39 112.97 77.11 114.38 83.99 115.5 C85.87 115.81 87.75 116.15 89.63 116.52 C98.02 118.12 106.25 118.28 114.76 118.23 C116.24 118.23 117.72 118.23 119.2 118.23 C122.27 118.23 125.35 118.22 128.42 118.21 C132.36 118.19 136.31 118.19 140.25 118.19 C143.29 118.19 146.34 118.18 149.38 118.17 C150.84 118.17 152.29 118.17 153.75 118.17 C155.77 118.16 157.79 118.16 159.81 118.15 C160.96 118.14 162.11 118.14 163.3 118.13 C165.97 118.18 165.97 118.18 168 117 C170 116.96 172 116.96 174 117 C174 116.34 174 115.68 174 115 C175.88 115.56 175.88 115.56 178 117 C179.25 120.62 179.25 120.62 180 124 C180.66 124 181.32 124 182 124 C185 129.62 185 129.62 185 133 C185.99 133.66 186.98 134.32 188 135 C189.17 137.06 189.17 137.06 190.19 139.44 C190.53 140.22 190.88 141 191.23 141.81 C192 144 192 144 192 147 C192.66 147 193.32 147 194 147 C194.58 148.15 195.16 149.31 195.75 150.5 C196.11 151.23 196.48 151.96 196.86 152.71 C197.59 154.18 198.32 155.66 199.05 157.14 C200.47 160.02 201.89 162.82 203.56 165.56 C205.35 168.59 206.62 171.77 208 175 C208.69 176.15 208.69 176.15 209.4 177.33 C211.73 181.21 213.63 185.29 215.6 189.36 C216.87 192.06 216.87 192.06 219 194 C219.16 195.01 219.33 196.02 219.5 197.06 C219.66 198.03 219.83 199 220 200 C220.66 200.33 221.32 200.66 222 201 C222.75 202.74 223.5 204.47 224.21 206.23 C225.18 208.41 226.55 210.11 228 212 C228.69 213.66 229.36 215.32 230 217 C230.66 217.99 231.32 218.98 232 220 C232.16 220.68 232.33 221.36 232.5 222.06 C232.88 224.22 232.88 224.22 235 226 C236.67 229.6 238.22 233.1 239 237 C239.66 237 240.32 237 241 237 C241.23 237.58 241.47 238.17 241.71 238.77 C246.42 249.36 254.69 257.49 263.64 264.7 C264.31 265.34 264.31 265.34 265 266 C265 266.66 265 267.32 265 268 C267.64 269.32 270.28 270.64 273 272 C273 272.66 273 273.32 273 274 C273.72 274.08 274.44 274.16 275.19 274.25 C278.61 275.16 280.26 276.77 283 279 C285.6 280.48 288.29 281.75 291 283 C291.76 283.35 292.52 283.71 293.3 284.07 C297.48 285.97 301.63 287.61 306 289 C306.78 289.33 307.57 289.66 308.38 290 C311.14 291.05 313.87 291.76 316.74 292.44 C319 293 319 293 321.76 294.02 C327.74 295.72 334.01 295.27 340.18 295.24 C341.62 295.24 343.05 295.25 344.49 295.25 C348.38 295.25 352.27 295.25 356.16 295.24 C360.24 295.23 364.32 295.23 368.4 295.23 C375.25 295.23 382.1 295.22 388.95 295.21 C396.86 295.19 404.77 295.18 412.68 295.19 C421.11 295.19 429.54 295.18 437.98 295.17 C440.4 295.17 442.83 295.17 445.25 295.17 C449.07 295.17 452.88 295.16 456.7 295.15 C458.09 295.15 459.49 295.15 460.89 295.15 C462.8 295.15 464.71 295.14 466.62 295.13 C467.69 295.13 468.76 295.13 469.86 295.13 C476.54 295.13 476.54 295.13 482 292 C483.11 291.88 484.23 291.75 485.38 291.62 C489.59 290.9 490.14 289.99 493 287 C495.48 285.19 498.01 283.49 500.56 281.78 C502.96 280.03 504.92 278.11 507 276 C507.66 275.67 508.32 275.34 509 275 C509.33 274.34 509.66 273.68 510 273 C511 271 511 271 513 270 C513.41 267.68 513.74 265.34 514 263 C514.33 263 514.66 263 515 263 C515.13 270.75 515.13 270.75 514 273 C513.01 273 512.02 273 511 273 C511.04 273.93 511.08 274.86 511.12 275.81 C511 279 511 279 509 282 C508.34 282 507.68 282 507 282 C506.96 282.66 506.92 283.32 506.88 284 C504.58 291.88 497.54 298.38 491 303 C478.47 309.77 466.19 311.31 452.08 311.27 C450.23 311.28 450.23 311.28 448.35 311.29 C445.01 311.3 441.67 311.3 438.33 311.3 C435.52 311.3 432.71 311.31 429.9 311.31 C423.25 311.32 416.61 311.32 409.97 311.32 C403.17 311.31 396.36 311.32 389.56 311.34 C383.68 311.36 377.79 311.37 371.91 311.36 C368.42 311.36 364.92 311.36 361.43 311.38 C321.08 311.53 287.91 302.51 257.88 274.25 C248.75 264.86 241.86 252.8 236.08 241.14 C235.01 239.01 233.89 236.91 232.75 234.82 C232.37 234.12 231.99 233.42 231.6 232.69 C230.82 231.27 230.05 229.86 229.27 228.44 C226.57 223.45 224.63 218.44 223 213 C222.34 213 221.68 213 221 213 C220.34 210.36 219.68 207.72 219 205 C218.34 205 217.68 205 217 205 C216.14 203.27 215.27 201.55 214.41 199.82 C213.67 198.35 212.94 196.87 212.2 195.4 C210.66 192.32 209.12 189.25 207.6 186.17 C204.23 179.35 200.65 172.67 197 166 C196.45 164.95 195.91 163.9 195.35 162.82 C187.84 148.93 176.05 141.14 161.36 136.09 C152.11 133.83 142.2 133.86 132.73 133.79 C130.61 133.76 128.48 133.73 126.35 133.7 C123.05 133.66 119.76 133.63 116.46 133.6 C89.79 133.37 64.65 129.3 44 111 C43.15 110.27 42.29 109.53 41.41 108.77 C30.07 98.85 21.92 87.62 14.48 74.57 C13.39 72.67 12.21 70.82 11 69 C10.86 68.17 10.71 67.35 10.56 66.5 C10.24 63.97 10.24 63.97 8.56 62.62 C6.2 60.17 5.87 57.25 5 54 C4.34 53.01 3.68 52.02 3 51 C2.67 48.81 2.56 46.66 2.44 44.45 C2.11 41.86 2.11 41.86 0.49 39.31 C-1.25 35.45 -1.36 32.77 -1.33 28.55 C-1.33 27.86 -1.32 27.17 -1.32 26.46 C-1.32 25 -1.3 23.55 -1.28 22.1 C-1.25 19.87 -1.24 17.65 -1.23 15.43 C-1.16 3.69 -1.16 3.69 0 0 Z " fill="#000000" transform="translate(34,769)"/>
<path d="M0 0 C21.95 0.06 43.9 0.14 65.85 0.24 C76.04 0.28 86.23 0.32 96.42 0.35 C105.3 0.37 114.18 0.4 123.06 0.45 C127.77 0.47 132.47 0.49 137.17 0.5 C141.6 0.5 146.03 0.52 150.45 0.55 C152.08 0.56 153.7 0.57 155.33 0.57 C157.55 0.56 159.76 0.58 161.98 0.6 C163.22 0.61 164.47 0.61 165.75 0.62 C170.4 1.17 172.94 2.97 176.25 6.19 C178.56 9.9 178.71 12.66 179 17 C179.66 17 180.32 17 181 17 C181 18.98 181 20.96 181 23 C181.66 23 182.32 23 183 23 C184 26 185 29 186 32 C185.67 32.66 185.34 33.32 185 34 C185.66 34 186.32 34 187 34 C188 36 189 38 190 40 C190.37 40.72 190.74 41.44 191.12 42.19 C192 44 192 44 193 47 C193.66 47 194.32 47 195 47 C195.58 47.76 196.15 48.53 196.75 49.31 C200.77 54.11 206.25 55.52 212.05 57.35 C214 58 214 58 216 59 C218.76 59.13 221.49 59.19 224.25 59.19 C225 59.2 225.75 59.21 226.53 59.22 C231.11 59.24 234.66 58.64 239 57 C240.18 56.88 241.35 56.75 242.56 56.62 C246.64 55.88 247.91 54.73 251 52 C252.66 50.87 254.33 49.74 256 48.62 C260.15 45.75 262.96 43 266 39 C266.89 38.13 267.77 37.27 268.69 36.38 C270.74 34.27 271.9 32.69 273 30 C273.29 35.01 273.07 37.13 270 41 C269.22 42.55 268.47 44.11 267.75 45.69 C262.32 56.71 253.74 66.63 242 71 C229.97 74.77 219.44 75.37 207.7 69.93 C199.03 64.83 192.38 57.02 188 48 C187.81 45.16 187.81 45.16 188 43 C186.68 42.34 185.36 41.68 184 41 C184 38.69 184 36.38 184 34 C183.4 33.79 182.8 33.59 182.19 33.38 C180 32 180 32 178.62 29.19 C175.97 23.98 171.62 20.68 166.16 18.62 C152.03 14.57 136.74 15.73 122.23 15.77 C119.53 15.77 116.83 15.77 114.14 15.77 C108.51 15.77 102.89 15.78 97.26 15.79 C90.77 15.81 84.29 15.82 77.8 15.81 C70.86 15.81 63.92 15.82 56.97 15.83 C54.99 15.83 53 15.83 51.01 15.83 C47.3 15.84 43.59 15.84 39.89 15.85 C38.25 15.85 38.25 15.85 36.58 15.85 C30.96 15.88 25.56 16.16 20 17 C20 18.98 20 20.96 20 23 C13.04 18.97 8.64 14.51 4 8 C3.2 7.05 2.39 6.1 1.56 5.12 C0 3 0 3 0 0 Z " fill="#000000" transform="translate(135,413)"/>
<path d="M0 0 C0 6.02 -3.19 11.79 -6 17 C-6.6 18.11 -6.6 18.11 -7.21 19.24 C-14.17 31.56 -22.29 39.99 -36.17 43.89 C-49.45 46.68 -62.72 46.44 -76.24 46.44 C-78.86 46.45 -81.48 46.47 -84.11 46.48 C-91.66 46.52 -99.22 46.54 -106.78 46.56 C-117.07 46.58 -127.37 46.62 -137.66 46.67 C-141.49 46.69 -145.31 46.69 -149.13 46.7 C-151.49 46.71 -153.84 46.72 -156.19 46.73 C-157.25 46.73 -158.3 46.72 -159.38 46.72 C-170.55 46.8 -181.44 48.32 -190.16 55.87 C-194.98 60.93 -198.17 66.59 -201.34 72.79 C-202.85 75.71 -204.47 78.51 -206.19 81.31 C-210.33 88.17 -214.31 94.84 -215 103 C-214.24 105.82 -214.24 105.82 -213 108 C-213 108.99 -213 109.98 -213 111 C-215.47 109.85 -217.05 108.95 -219 107 C-222.01 107.39 -223.4 108.26 -226 110 C-224.33 105 -222.67 100 -221 95 C-218.52 94.5 -218.52 94.5 -216 94 C-216.33 91.69 -216.66 89.38 -217 87 C-216.04 86.69 -216.04 86.69 -215.06 86.38 C-212.65 85.1 -212.65 85.1 -212.25 81.88 C-212.17 80.93 -212.08 79.98 -212 79 C-210.51 78.5 -210.51 78.5 -209 78 C-208.9 76.93 -208.79 75.86 -208.69 74.75 C-208 70.99 -207.41 69.78 -205 67 C-203.58 64.7 -202.21 62.42 -201 60 C-198 54 -198 54 -197.02 52.07 C-196.68 51.41 -196.35 50.75 -196 50.06 C-195.65 49.38 -195.31 48.71 -194.95 48.01 C-193.85 45.78 -193.85 45.78 -192.75 42.44 C-190.39 37.8 -187.02 35.19 -183 32 C-182.5 31.5 -182.5 31.5 -182 31 C-180.16 30.9 -178.31 30.88 -176.47 30.88 C-175.27 30.87 -174.07 30.87 -172.83 30.87 C-171.49 30.87 -170.14 30.87 -168.8 30.87 C-167.39 30.87 -165.99 30.87 -164.58 30.87 C-161.54 30.86 -158.51 30.86 -155.47 30.86 C-150.66 30.86 -145.84 30.85 -141.03 30.83 C-140.22 30.83 -139.4 30.83 -138.57 30.82 C-136.9 30.82 -135.24 30.81 -133.58 30.81 C-122.37 30.77 -111.16 30.75 -99.95 30.75 C-92.4 30.75 -84.84 30.73 -77.29 30.7 C-73.29 30.68 -69.3 30.67 -65.3 30.68 C-61.53 30.69 -57.76 30.68 -53.99 30.65 C-51.97 30.64 -49.95 30.66 -47.93 30.67 C-36.61 30.55 -25.38 28.1 -16.75 20.31 C-15.44 19.16 -15.44 19.16 -14.11 17.99 C-12.72 16.68 -11.35 15.35 -10 14 C-9.48 13.55 -8.97 13.09 -8.44 12.62 C-6.8 10.77 -6.42 9.41 -6 7 C-5.01 7 -4.02 7 -3 7 C-2.69 6.03 -2.38 5.06 -2.06 4.06 C-1 1 -1 1 0 0 Z " fill="#000000" transform="translate(550,559)"/>
<path d="M0 0 C0.33 0 0.66 0 1 0 C0.98 1.18 0.96 2.36 0.94 3.58 C0.86 7.97 0.82 12.37 0.78 16.76 C0.76 18.66 0.73 20.56 0.7 22.46 C0.65 25.19 0.63 27.93 0.61 30.66 C0.59 31.51 0.57 32.35 0.55 33.22 C0.54 38.7 1.52 41.56 5 46 C5.47 48.34 5.47 48.34 5.5 50.5 C5.81 54.97 7.29 57.39 10 61 C11.4 64.01 12 65.67 12 69 C12.66 69 13.32 69 14 69 C14 70.32 14 71.64 14 73 C14.64 73.1 15.28 73.21 15.94 73.31 C16.62 73.54 17.3 73.77 18 74 C18.33 74.99 18.66 75.98 19 77 C20.3 78.69 21.64 80.36 23 82 C26 85.64 26 85.64 26 89 C26.58 89.24 27.17 89.48 27.77 89.72 C30.46 91.26 31.82 92.97 33.69 95.44 C34.29 96.22 34.89 97 35.51 97.81 C37 100 37 100 38 103 C38.74 103.74 39.48 104.49 40.25 105.25 C42.34 107.34 43.86 109.11 45.5 111.5 C47.03 113.72 48.44 115.44 50.38 117.38 C55.76 122.76 60.11 129.12 64.66 135.22 C65.8 136.74 66.99 138.22 68.19 139.69 C70 142 70 142 71.56 144.62 C72.87 147 72.87 147 74.62 148.62 C76 150 76 150 77 153 C78.31 154.36 79.65 155.69 81 157 C82.34 158.66 83.68 160.33 85 162 C85.97 163.15 86.95 164.3 87.94 165.44 C88.46 166.04 88.97 166.64 89.51 167.27 C90.78 168.74 92.04 170.21 93.31 171.69 C95.7 174.56 97.9 177.56 100.12 180.56 C104.03 185.83 108.17 190.83 112.55 195.72 C116 199.68 116 199.68 116 203 C117.23 204.48 117.23 204.48 119 206 C122.6 209.42 125.31 212.83 128 217 C128.72 217.89 129.44 218.77 130.19 219.69 C132 222 132 222 133 225 C134.66 226.34 136.33 227.67 138 229 C140.91 232.07 143.11 235.23 145 239 C146.33 240.34 147.66 241.67 149 243 C150.44 244.67 151.86 246.35 153.25 248.06 C153.96 248.92 154.66 249.78 155.39 250.66 C157 253 157 253 157 256 C157.99 256.33 158.98 256.66 160 257 C162.62 259.85 164.43 262.12 165 266 C165.66 266 166.32 266 167 266 C167 266.99 167 267.98 167 269 C168.32 269.66 169.64 270.32 171 271 C171 271.66 171 272.32 171 273 C171.66 273 172.32 273 173 273 C175.81 275.7 178.07 278.61 180 282 C179.82 285.3 179.52 286.24 178 289 C177.53 289.93 177.06 290.85 176.57 291.81 C172.59 299.41 172.59 299.41 170 302 C169.8 298.28 169.85 297.23 172 294 C171.16 281.83 160.39 271.08 153 262 C151.67 260.33 150.33 258.67 149 257 C148.36 256.21 147.73 255.41 147.07 254.59 C139.69 245.35 132.45 236.01 125.19 226.67 C121.64 222.11 118.08 217.55 114.5 213 C110.31 207.68 106.15 202.34 102 197 C94.04 186.76 86.06 176.55 77.94 166.44 C73.87 161.37 69.87 156.27 65.92 151.11 C62.39 146.5 58.82 141.9 55.25 137.31 C54.66 136.55 54.07 135.79 53.46 135.01 C50.45 131.14 47.43 127.27 44.41 123.41 C41.49 119.67 38.58 115.93 35.68 112.17 C34.57 110.74 33.46 109.31 32.35 107.88 C14 84.28 14 84.28 14 77 C13.34 77 12.68 77 12 77 C11.72 76.43 11.45 75.87 11.16 75.29 C10.62 74.18 10.62 74.18 10.06 73.06 C9.52 71.97 9.52 71.97 8.97 70.85 C8.14 69.04 8.14 69.04 7 68 C6.86 65.33 6.96 62.68 7 60 C6.35 59.77 5.7 59.54 5.04 59.3 C3 58 3 58 2.5 55.79 C2.48 54.93 2.46 54.07 2.44 53.19 C2.34 49.26 2.34 49.26 0.5 45.88 C-1.5 42.05 -1.39 38.59 -1.33 34.38 C-1.33 33.55 -1.32 32.73 -1.32 31.88 C-1.32 30.14 -1.3 28.4 -1.28 26.66 C-1.25 24.01 -1.24 21.36 -1.23 18.7 C-1.23 17.01 -1.21 15.32 -1.2 13.62 C-1.2 12.84 -1.19 12.05 -1.19 11.23 C-1.14 7.37 -0.93 3.75 0 0 Z " fill="#020202" transform="translate(34,387)"/>
<path d="M0 0 C1.27 2.54 1 4.05 0.75 6.88 C0.68 7.74 0.62 8.6 0.55 9.49 C-0.08 12.36 -1.18 13.74 -3 16 C-3.83 17.84 -3.83 17.84 -4.44 19.75 C-12.63 42.65 -29.41 63.35 -51.31 74.14 C-57.42 77 -63.59 79.81 -69.96 82.04 C-70.64 82.35 -71.31 82.67 -72 83 C-73.16 86.47 -73.07 89.36 -73 93 C-73.29 92.38 -73.58 91.76 -73.88 91.12 C-75.22 88.58 -76.42 87.29 -79 86 C-79.67 84.33 -80.33 82.67 -81 81 C-81.66 80.67 -82.32 80.34 -83 80 C-83.82 78.33 -83.82 78.33 -84.56 76.25 C-84.81 75.57 -85.06 74.9 -85.32 74.2 C-86.06 71.82 -86.55 69.45 -87 67 C-86.22 66.95 -85.45 66.9 -84.65 66.85 C-70.33 66.91 -70.33 66.91 -58 62 C-55.84 61.37 -55.84 61.37 -53.38 60.88 C-52.15 60.62 -52.15 60.62 -50.9 60.37 C-50.27 60.25 -49.65 60.12 -49 60 C-49 59.34 -49 58.68 -49 58 C-47.87 57.73 -46.73 57.46 -45.56 57.19 C-44.39 56.8 -43.21 56.4 -42 56 C-41.67 55.01 -41.34 54.02 -41 53 C-39.37 51.95 -37.69 50.96 -36 50 C-29.59 45.35 -24.39 40.81 -20.27 34.02 C-17.87 30.2 -15.35 27.45 -11 26 C-9.94 24.03 -8.96 22.02 -8 20 C-7.15 18.77 -6.3 17.54 -5.44 16.31 C-2.75 12.14 -2.03 8.09 -1.36 3.22 C-1 1 -1 1 0 0 Z " fill="#000000" transform="translate(408,820)"/>
<path d="M0 0 C0.66 0 1.32 0 2 0 C3.48 2.96 3.06 5.74 3 9 C4.32 9.33 5.64 9.66 7 10 C7.1 10.64 7.21 11.28 7.31 11.94 C7.54 12.62 7.77 13.3 8 14 C8.99 14.33 9.98 14.66 11 15 C12.99 17.66 15 20.61 15 24 C15.64 24.23 16.28 24.45 16.94 24.69 C19 26 19 26 19.75 28.62 C19.83 29.41 19.92 30.19 20 31 C20.99 31 21.98 31 23 31 C24.39 32.46 24.39 32.46 25.69 34.38 C26.12 35 26.56 35.63 27.01 36.27 C28 38 28 38 28 40 C24.79 41.07 22.46 41.13 19.09 41.13 C17.36 41.13 17.36 41.13 15.59 41.14 C14.39 41.13 13.18 41.13 11.94 41.12 C10.12 41.13 10.12 41.13 8.27 41.14 C7.12 41.14 5.97 41.13 4.78 41.13 C3.72 41.13 2.66 41.13 1.57 41.13 C-1 41 -1 41 -3 40 C-4.6 31.2 -4.18 22.59 -3.12 13.75 C-3.05 13.08 -2.97 12.4 -2.89 11.71 C-2.36 7.6 -1.43 3.88 0 0 Z M1 32 C1 34.31 1 36.62 1 39 C6.28 39 11.56 39 17 39 C13.37 34.47 12.09 33.01 7 31 C3.22 30.7 3.22 30.7 1 32 Z " fill="#020202" transform="translate(279,751)"/>
<path d="M0 0 C0.33 0 0.66 0 1 0 C0.98 1.18 0.96 2.36 0.94 3.58 C0.86 7.97 0.82 12.37 0.78 16.76 C0.76 18.66 0.73 20.56 0.7 22.46 C0.65 25.19 0.63 27.93 0.61 30.66 C0.59 31.51 0.57 32.35 0.55 33.22 C0.54 38.7 1.53 41.55 5 46 C5.47 48.82 5.2 51.12 5 54 C4.67 54 4.34 54 4 54 C3.73 53.11 3.46 52.23 3.19 51.31 C2.19 48.06 2.19 48.06 0.45 45.83 C-1.5 42.02 -1.39 38.55 -1.33 34.38 C-1.33 33.55 -1.32 32.73 -1.32 31.88 C-1.32 30.14 -1.3 28.4 -1.28 26.66 C-1.25 24.01 -1.24 21.36 -1.23 18.7 C-1.23 17.01 -1.21 15.32 -1.2 13.62 C-1.2 12.84 -1.19 12.05 -1.19 11.23 C-1.14 7.37 -0.93 3.75 0 0 Z " fill="#393939" transform="translate(34,387)"/>
<path d="M0 0 C0.33 0 0.66 0 1 0 C1.01 1.04 1.03 2.08 1.04 3.15 C1.1 7.01 1.18 10.87 1.26 14.73 C1.3 16.4 1.32 18.07 1.35 19.74 C1.38 22.15 1.43 24.55 1.49 26.95 C1.5 28.07 1.5 28.07 1.51 29.21 C1.63 33.54 2.24 35.71 5 39 C5 40.32 5 41.64 5 43 C2 42 2 42 0.33 39.4 C-1.18 35.54 -1.36 32.7 -1.33 28.55 C-1.33 27.86 -1.32 27.17 -1.32 26.46 C-1.32 25 -1.3 23.55 -1.28 22.1 C-1.25 19.87 -1.24 17.65 -1.23 15.43 C-1.16 3.69 -1.16 3.69 0 0 Z " fill="#2D2D2D" transform="translate(34,769)"/>
<path d="M0 0 C3.05 -0.27 5.9 -0.35 8.95 -0.29 C9.83 -0.29 10.72 -0.28 11.63 -0.28 C14.46 -0.26 17.29 -0.23 20.12 -0.19 C22.04 -0.17 23.96 -0.16 25.88 -0.15 C30.59 -0.11 35.29 -0.06 40 0 C40 0.33 40 0.66 40 1 C39.15 1.03 38.31 1.05 37.44 1.08 C34.24 1.17 31.04 1.27 27.84 1.37 C26.47 1.42 25.1 1.46 23.72 1.5 C15.12 1.75 6.57 2.18 -2 3 C-1.34 2.01 -0.68 1.02 0 0 Z " fill="#131313" transform="translate(357,491)"/>
<path d="M0 0 C0.33 0 0.66 0 1 0 C1.05 4.81 1.09 9.61 1.11 14.42 C1.12 16.05 1.13 17.69 1.15 19.32 C1.18 21.67 1.19 24.02 1.2 26.37 C1.21 27.1 1.22 27.83 1.23 28.59 C1.23 30.39 1.12 32.2 1 34 C0.34 34.66 -0.32 35.32 -1 36 C-1.68 33.88 -2.12 32.46 -1.55 30.27 C-0.84 27.32 -0.78 24.51 -0.68 21.48 C-0.64 20.23 -0.6 18.98 -0.56 17.7 C-0.52 16.39 -0.48 15.09 -0.44 13.75 C-0.39 12.43 -0.35 11.12 -0.31 9.76 C-0.2 6.51 -0.1 3.25 0 0 Z " fill="#000000" transform="translate(411,783)"/>
<path d="M0 0 C0.33 0 0.66 0 1 0 C1.39 2.29 1.76 4.58 2.12 6.88 C2.33 8.15 2.54 9.43 2.76 10.74 C2.84 11.82 2.92 12.89 3 14 C2.34 14.66 1.68 15.32 1 16 C-1.73 15.97 -4.3 15.44 -7 15 C-7 14.67 -7 14.34 -7 14 C-4.69 13.34 -2.38 12.68 0 12 C0 8.04 0 4.08 0 0 Z " fill="#1F1F1F" transform="translate(174,777)"/>
<path d="M0 0 C1.94 0.81 1.94 0.81 4 2 C4.33 2.99 4.66 3.98 5 5 C1.04 5 -2.92 5 -7 5 C-6.67 4.01 -6.34 3.02 -6 2 C-4.02 2 -2.04 2 0 2 C0 1.34 0 0.68 0 0 Z " fill="#686868" transform="translate(208,884)"/>
<path d="M0 0 C0.33 0 0.66 0 1 0 C1.06 3.94 1.09 7.87 1.12 11.81 C1.15 13.49 1.15 13.49 1.18 15.21 C1.18 16.28 1.19 17.35 1.2 18.46 C1.21 19.45 1.22 20.44 1.23 21.46 C1 24 1 24 -1 27 C-0.67 18.09 -0.34 9.18 0 0 Z " fill="#000000" transform="translate(552,532)"/>
<path d="M0 0 C0.66 0 1.32 0 2 0 C6.1 4.83 6.42 7.95 6 14 C5.67 14 5.34 14 5 14 C4.73 13.11 4.46 12.23 4.19 11.31 C3.13 8.01 3.13 8.01 1.38 5.31 C0 3 0 3 0 0 Z " fill="#242424" transform="translate(33,427)"/>
<path d="M0 0 C0.99 0.33 1.98 0.66 3 1 C3.69 3.06 3.69 3.06 4 5 C2.65 3.69 1.31 2.35 0 1 C0 0.67 0 0.34 0 0 Z " fill="#000000" transform="translate(156,439)"/>
<path d="M0 0 C0.66 1.32 1.32 2.64 2 4 C1.34 4 0.68 4 0 4 C0 2.68 0 1.36 0 0 Z " fill="#000000" transform="translate(342,925)"/>
<path d="M0 0 C0.33 0 0.66 0 1 0 C1 1.65 1 3.3 1 5 C0.67 5 0.34 5 0 5 C0 3.35 0 1.7 0 0 Z " fill="#000000" transform="translate(407,770)"/>
<path d="M0 0 C0.33 0 0.66 0 1 0 C1 1.65 1 3.3 1 5 C0.67 5 0.34 5 0 5 C0 3.35 0 1.7 0 0 Z " fill="#000000" transform="translate(129,765)"/>
<path d="M0 0 C1 4 1 4 1 4 Z " fill="#000000" transform="translate(355,950)"/>
<path d="M0 0 C1 4 1 4 1 4 Z " fill="#000000" transform="translate(407,395)"/>
<path d="M0 0 C1 4 1 4 1 4 Z " fill="#000000" transform="translate(402,380)"/>
<path d="" fill="#000000" transform="translate(0,0)"/>
<path d="" fill="#000000" transform="translate(0,0)"/>
<path d="" fill="#000000" transform="translate(0,0)"/>
<path d="" fill="#000000" transform="translate(0,0)"/>
<path d="" fill="#000000" transform="translate(0,0)"/>
<path d="" fill="#000000" transform="translate(0,0)"/>
<path d="" fill="#000000" transform="translate(0,0)"/>
<path d="" fill="#FCFCFC" transform="translate(0,0)"/>
<path d="" fill="#000000" transform="translate(0,0)"/>
<path d="" fill="#000000" transform="translate(0,0)"/>
<path d="" fill="#000000" transform="translate(0,0)"/>
<path d="" fill="#000000" transform="translate(0,0)"/>
<path d="" fill="#000000" transform="translate(0,0)"/>
<path d="" fill="#000000" transform="translate(0,0)"/>
<path d="" fill="#000000" transform="translate(0,0)"/>
<path d="" fill="#000000" transform="translate(0,0)"/>
<path d="" fill="#000000" transform="translate(0,0)"/>
<path d="" fill="#000000" transform="translate(0,0)"/>
<path d="" fill="#000000" transform="translate(0,0)"/>
<path d="" fill="#000000" transform="translate(0,0)"/>
<path d="" fill="#000000" transform="translate(0,0)"/>
<path d="" fill="#FCFCFC" transform="translate(0,0)"/>
<path d="" fill="#FCFCFC" transform="translate(0,0)"/>
<path d="" fill="#787878" transform="translate(0,0)"/>
<path d="" fill="#FCFCFC" transform="translate(0,0)"/>
<path d="" fill="#000000" transform="translate(0,0)"/>
<path d="" fill="#000000" transform="translate(0,0)"/>
<path d="" fill="#000000" transform="translate(0,0)"/>
<path d="" fill="#000000" transform="translate(0,0)"/>
<path d="" fill="#000000" transform="translate(0,0)"/>
<path d="" fill="#000000" transform="translate(0,0)"/>
<path d="" fill="#000000" transform="translate(0,0)"/>
<path d="" fill="#FCFCFC" transform="translate(0,0)"/>
<path d="" fill="#FCFCFC" transform="translate(0,0)"/>
<path d="" fill="#000000" transform="translate(0,0)"/>
<path d="" fill="#000000" transform="translate(0,0)"/>
<path d="" fill="#000000" transform="translate(0,0)"/>
<path d="" fill="#000000" transform="translate(0,0)"/>
<path d="" fill="#000000" transform="translate(0,0)"/>
<path d="" fill="#000000" transform="translate(0,0)"/>
<path d="" fill="#000000" transform="translate(0,0)"/>
<path d="" fill="#000000" transform="translate(0,0)"/>
<path d="" fill="#000000" transform="translate(0,0)"/>
<path d="" fill="#000000" transform="translate(0,0)"/>
<path d="" fill="#FCFCFC" transform="translate(0,0)"/>
<path d="" fill="#FCFCFC" transform="translate(0,0)"/>
<path d="" fill="#000000" transform="translate(0,0)"/>
<path d="" fill="#FCFCFC" transform="translate(0,0)"/>
<path d="" fill="#FCFCFC" transform="translate(0,0)"/>
<path d="" fill="#FCFCFC" transform="translate(0,0)"/>
</svg>
